<svg xmlns="http://www.w3.org/2000/svg" width="48" height="40" viewBox="0 0 48 40">
  <g fill="none" fill-rule="evenodd" stroke-linecap="round" stroke-linejoin="round">
    <g stroke="#000" stroke-width="2" transform="translate(7 5.5)">
      <line x2="6" y1="4.5" y2="4.5"/>
      <line x2="8" y1=".5" y2=".5"/>
      <line x2="8" y1="8.5" y2="8.5"/>
      <polyline points="34 .5 34 8.5 33 8.5 27 .5 26 .5 26 8.5"/>
      <polyline points="18 8.5 15 5.5 18 2.5 18 .5 11 .5 11 8.5"/>
      <line x1="22" x2="22" y1=".5" y2="8.5"/>
    </g>
    <g stroke="#FFF" stroke-width="2" transform="translate(7 25.5)">
      <line x2="6" y1="4.5" y2="4.5"/>
      <line x2="8" y1=".5" y2=".5"/>
      <line x2="8" y1="8.5" y2="8.5"/>
      <polyline points="34 .5 34 8.5 33 8.5 27 .5 26 .5 26 8.5"/>
      <polyline points="18 8.5 15 5.5 18 2.5 18 .5 11 .5 11 8.5"/>
      <line x1="22" x2="22" y1=".5" y2="8.5"/>
    </g>
  </g>
</svg>
